<svg xmlns="http://www.w3.org/2000/svg"  viewBox="0 0 100 100" width="100px" height="100px"><circle cx="50" cy="50" r="34" fill="#565fa0"/><path fill="#1f212b" d="M50,85c-19.299,0-35-15.701-35-35s15.701-35,35-35s35,15.701,35,35S69.299,85,50,85z M50,17	c-18.196,0-33,14.804-33,33s14.804,33,33,33s33-14.804,33-33S68.196,17,50,17z"/><path fill="#1f212b" d="M65.827,80.169C60.547,78.221,57,73.13,57,67.5C57,60.056,63.056,54,70.5,54	c4.929,0,9.466,2.687,11.841,7.011l-0.877,0.48C79.265,57.487,75.063,55,70.5,55C63.607,55,58,60.607,58,67.5	c0,5.213,3.284,9.927,8.173,11.731L65.827,80.169z"/><path fill="#fbb97f" d="M70.5,80.5c-23.728,0.539-41,1-49-10c-3.918-5.387-3.437-14.204,2-21	c6.575-8.219,20.821-18.229,25.686-21.534l1.153-0.783c0.432-0.293,0.496-0.922,0.106-1.27c-2.937-2.614-20.249-3.422-24.679-2.481	c-0.526,0.112-1.042-0.224-1.154-0.75c-0.101-0.477,0.166-0.946,0.609-1.113c6.539-2.461,13.461-4.893,20.578-5.389	c1.743-0.122,3.499-0.133,5.233,0.08c12.436,1.525,11.438,11.292,9.59,14.524C55.594,39.579,36.5,59.5,36.5,59.5	c8.457,1.788,16.946,0.375,27-3"/><circle cx="70.5" cy="67.5" r="13" fill="#fbb97f"/><path fill="#1f212b" d="M84,67.5C84,60.056,77.944,54,70.5,54c-2.588,0-5,0.745-7.057,2.013	c-0.034,0.004-0.068,0.002-0.103,0.013c-10.641,3.572-18.443,4.534-25.852,3.16c3.396-3.574,19.021-20.203,23.566-28.154	c0.433-0.757,0.838-1.894,1.038-3.217c0.034-0.081,0.047-0.165,0.037-0.251c0.231-1.801,0.071-3.918-0.923-5.902	c-1.135-2.265-3.812-5.126-10.114-5.898c-0.983-0.121-2.036-0.169-3.162-0.162c-0.154-0.117-0.369-0.139-0.547-0.04	c-0.025,0.014-0.048,0.03-0.073,0.044c-0.5,0.013-1.013,0.037-1.547,0.074c-7.151,0.499-14.156,2.951-20.719,5.421	c-0.676,0.253-1.072,0.978-0.922,1.684c0.082,0.385,0.309,0.716,0.639,0.93c0.329,0.214,0.725,0.286,1.107,0.206	c1.617-0.343,4.913-0.45,8.581-0.329c0.024,0.003,0.045,0.014,0.07,0.014c0.01,0,0.02,0,0.029-0.001	c0.012-0.001,0.021-0.007,0.032-0.008c1.905,0.066,3.904,0.193,5.819,0.381c0.05,0.016,0.101,0.031,0.153,0.031	c0.014,0,0.026-0.011,0.04-0.012c4.394,0.443,8.305,1.209,9.521,2.291c0.086,0.076,0.093,0.176,0.09,0.229	c-0.007,0.104-0.06,0.195-0.145,0.253l-1.153,0.783c-5.588,3.795-19.288,13.5-25.796,21.635c-5.381,6.727-6.228,15.813-2.014,21.606	c0.617,0.849,1.303,1.611,2.024,2.331c0.026,0.035,0.056,0.063,0.09,0.09c6.817,6.719,18.149,8.01,33.13,8.01	c4.288,0,8.878-0.104,13.74-0.215L70.512,81c0.001,0,0.002-0.001,0.003-0.001C77.953,80.991,84,74.939,84,67.5z M34,22.454	c0,0.053,0.004,0.105,0.005,0.158c-3.661-0.102-6.869,0.019-8.343,0.331c-0.124,0.025-0.25,0.003-0.356-0.065	c-0.105-0.069-0.178-0.175-0.204-0.3c-0.049-0.227,0.078-0.458,0.295-0.54c2.984-1.123,6.062-2.233,9.196-3.162	C34.206,20.026,34,21.224,34,22.454z M40.248,22.989c-1.738-0.165-3.525-0.278-5.242-0.344C35.004,22.581,35,22.518,35,22.454	c0-1.359,0.263-2.678,0.778-3.923c3.231-0.902,6.518-1.577,9.827-1.828C43.2,18.416,41.339,20.588,40.248,22.989z M41.305,23.096	c1.251-2.562,3.451-4.84,6.289-6.491c1.217-0.023,2.338,0.024,3.377,0.152c4.707,0.577,7.85,2.379,9.342,5.354	c0.746,1.487,0.959,3.079,0.888,4.515c-1.87-1.368-4.213-2.111-6.701-2.111c-1.432,0-2.81,0.255-4.109,0.739	C48.807,24.231,45.265,23.525,41.305,23.096z M49.468,28.381l1.153-0.784c0.342-0.232,0.554-0.603,0.58-1.016	c0.012-0.182-0.019-0.359-0.078-0.523c1.074-0.354,2.205-0.543,3.377-0.543c2.49,0,4.809,0.818,6.576,2.295	c-0.185,1.134-0.529,2.1-0.888,2.727c-1.265,2.212-3.449,5.156-5.998,8.314c-1.637-4.043-5.491-6.723-9.898-6.838	C46.502,30.416,48.338,29.148,49.468,28.381z M42.834,33.075C43.218,33.03,43.607,33,44,33c4.307,0,8.07,2.706,9.454,6.757	c-2.536,3.098-5.367,6.35-7.994,9.288C42.574,45.031,37.966,42.65,33,42.65c-0.777,0-1.549,0.065-2.312,0.18	C34.647,39.271,39.12,35.804,42.834,33.075z M23.121,71.694c-0.425-0.473-0.835-0.963-1.217-1.488	c-3.954-5.437-3.118-14.013,1.986-20.394c1.464-1.831,3.325-3.759,5.38-5.683c0.018-0.003,0.036,0.001,0.054-0.004	c1.192-0.315,2.429-0.476,3.675-0.476c4.717,0,9.079,2.307,11.767,6.168c-4.334,4.823-7.965,8.641-8.544,9.247	C29.388,59.663,23.957,64.958,23.121,71.694z M24.035,72.641c0.424-6.747,5.773-12.151,12.538-12.61	c0.007,0,0.012-0.004,0.018-0.005c1.967,0.405,3.954,0.649,6.003,0.729c-2.54,2.82-3.943,6.417-3.943,10.245	c0,3.053,0.885,5.959,2.557,8.472C33.912,78.544,28.115,76.574,24.035,72.641z M42.537,79.628C40.65,77.125,39.65,74.145,39.65,71	c0-3.863,1.513-7.486,4.26-10.203c0.003-0.003,0.004-0.007,0.007-0.01c5.094,0.021,10.63-0.962,17.24-3.009	C58.601,60.235,57,63.681,57,67.5c0,5.755,3.625,10.666,8.706,12.605C56.927,80.287,49.15,80.341,42.537,79.628z M70.5,80	C63.607,80,58,74.393,58,67.5S63.607,55,70.5,55S83,60.607,83,67.5S77.393,80,70.5,80z"/><circle cx="69" cy="70" r="4.95" fill="#fff"/><path fill="#1f212b" d="M69,75.45c-3.005,0-5.45-2.445-5.45-5.45s2.445-5.45,5.45-5.45s5.45,2.445,5.45,5.45	S72.005,75.45,69,75.45z M69,65.55c-2.454,0-4.45,1.996-4.45,4.45s1.996,4.45,4.45,4.45s4.45-1.996,4.45-4.45S71.454,65.55,69,65.55	z"/><circle cx="69" cy="70" r="3" fill="#1f212b"/><path fill="#1f212b" d="M69,73.5c-1.93,0-3.5-1.57-3.5-3.5s1.57-3.5,3.5-3.5s3.5,1.57,3.5,3.5S70.93,73.5,69,73.5z M69,67.5	c-1.379,0-2.5,1.121-2.5,2.5s1.121,2.5,2.5,2.5s2.5-1.121,2.5-2.5S70.379,67.5,69,67.5z"/><path fill="#c17d48" d="M77.383,73.424L77.383,73.424c-0.765,0.317-1.643-0.047-1.96-0.812l0,0	c-0.106-0.255,0.016-0.548,0.271-0.653l1.848-0.765c0.255-0.106,0.548,0.016,0.653,0.271l0,0	C78.512,72.23,78.148,73.107,77.383,73.424z"/><path fill="#1f212b" d="M76.812,74.038c-0.785,0-1.531-0.465-1.851-1.234c-0.21-0.511,0.032-1.097,0.541-1.307l1.848-0.766	c0.513-0.212,1.097,0.033,1.307,0.541c0.205,0.494,0.205,1.038,0,1.532c-0.204,0.493-0.589,0.877-1.082,1.081	C77.324,73.989,77.066,74.038,76.812,74.038z M77.732,71.655l-1.848,0.766c0.211,0.51,0.797,0.754,1.307,0.541l0,0	c0.247-0.102,0.438-0.294,0.541-0.54C77.835,72.175,77.835,71.902,77.732,71.655z"/><circle cx="79.628" cy="65.372" r="4.128" fill="#fff"/><path fill="#1f212b" d="M79.628,70C77.076,70,75,67.924,75,65.372s2.076-4.627,4.628-4.627s4.627,2.075,4.627,4.627	S82.18,70,79.628,70z M79.628,61.745c-2,0-3.628,1.627-3.628,3.627S77.628,69,79.628,69s3.627-1.628,3.627-3.628	S81.628,61.745,79.628,61.745z"/><circle cx="79.628" cy="65.195" r="2.287" fill="#1f212b"/><path fill="#1f212b" d="M79.628,67.982c-1.537,0-2.787-1.25-2.787-2.787s1.25-2.787,2.787-2.787s2.787,1.25,2.787,2.787	S81.165,67.982,79.628,67.982z M79.628,63.408c-0.985,0-1.787,0.802-1.787,1.787s0.802,1.787,1.787,1.787s1.787-0.802,1.787-1.787	S80.613,63.408,79.628,63.408z"/><path fill="#1f212b" d="M79.562,52.506c-0.012,0-0.023,0-0.035-0.001c-0.275-0.019-0.483-0.257-0.465-0.533	c0.044-0.648,0.066-1.312,0.066-1.972c0-3.91-0.762-7.705-2.265-11.279c-0.107-0.254,0.013-0.547,0.268-0.654	c0.252-0.105,0.548,0.014,0.654,0.268c1.555,3.697,2.343,7.622,2.343,11.666c0,0.683-0.023,1.368-0.068,2.04	C80.042,52.304,79.821,52.506,79.562,52.506z"/><path fill="#1f212b" d="M76.213,36.679c-0.179,0-0.353-0.097-0.442-0.267c-0.388-0.733-0.811-1.457-1.257-2.15	c-0.149-0.232-0.082-0.542,0.15-0.691c0.231-0.149,0.541-0.082,0.691,0.15c0.461,0.717,0.898,1.466,1.3,2.225	c0.129,0.244,0.035,0.546-0.209,0.676C76.372,36.66,76.292,36.679,76.213,36.679z"/><path fill="#1f212b" d="M72.998,31.82c-0.146,0-0.289-0.063-0.388-0.185c-0.651-0.802-1.356-1.58-2.097-2.314	c-0.195-0.194-0.197-0.511-0.002-0.707c0.194-0.194,0.511-0.199,0.707-0.002c0.765,0.759,1.494,1.563,2.167,2.393	c0.175,0.215,0.142,0.529-0.072,0.703C73.221,31.783,73.109,31.82,72.998,31.82z"/></svg>